<svg xmlns="http://www.w3.org/2000/svg" version="1.1" xmlns:xlink="http://www.w3.org/1999/xlink" xmlns:svgjs="http://svgjs.com/svgjs" width="1440" height="560" preserveAspectRatio="none" viewBox="0 0 1440 560">
    <g mask="url(&quot;#SvgjsMask1002&quot;)" fill="none">
        <rect width="1440" height="560" x="0" y="0" fill="url(#SvgjsLinearGradient1003)"></rect>
        <path d="M1440 0L1169.67 0L1440 127.71z" fill="rgba(255, 255, 255, .1)"></path>
        <path d="M1169.67 0L1440 127.71L1440 165.54L958.5600000000001 0z" fill="rgba(255, 255, 255, .075)"></path>
        <path d="M958.56 0L1440 165.54L1440 365.90999999999997L362.28999999999996 0z" fill="rgba(255, 255, 255, .05)"></path>
        <path d="M362.28999999999996 0L1440 365.90999999999997L1440 372.4L230.05999999999997 0z" fill="rgba(255, 255, 255, .025)"></path>
        <path d="M0 560L689.41 560L0 469.35z" fill="rgba(0, 0, 0, .1)"></path>
        <path d="M0 469.35L689.41 560L931.0899999999999 560L0 213.34000000000003z" fill="rgba(0, 0, 0, .075)"></path>
        <path d="M0 213.34000000000003L931.0899999999999 560L1146.3 560L0 170.77000000000004z" fill="rgba(0, 0, 0, .05)"></path>
        <path d="M0 170.77000000000004L1146.3 560L1251.08 560L0 92.22000000000004z" fill="rgba(0, 0, 0, .025)"></path>
    </g>
    <defs>
        <mask id="SvgjsMask1002">
            <rect width="1440" height="560" fill="#ffffff"></rect>
        </mask>
        <linearGradient x1="15.28%" y1="-39.29%" x2="84.72%" y2="139.29%" gradientUnits="userSpaceOnUse" id="SvgjsLinearGradient1003">
            <stop stop-color="#0e2a47" offset="0"></stop>
            <stop stop-color="#00459e" offset="1"></stop>
        </linearGradient>
    </defs>
</svg>